<?xml version="1.0" encoding="UTF-8"?>
<svg version="1.1" xmlns="http://www.w3.org/2000/svg" width="837" height="167">
<path d="M0 0 C276.21 0 552.42 0 837 0 C837 55.11 837 110.22 837 167 C560.79 167 284.58 167 0 167 C0 111.89 0 56.78 0 0 Z " fill="#3D3D3D" transform="translate(0,0)"/>
<path d="M0 0 C9 0 9 0 11.34765625 1.50390625 C12.19650391 2.52291016 12.19650391 2.52291016 13.0625 3.5625 C16.09633407 7.09165392 19.33099616 10.08673025 22.84790039 13.11938477 C26.38610741 16.21125188 29.77949128 19.45364049 33.1875 22.6875 C40.40847293 29.51338266 47.68110005 36.27934057 55 43 C53.27845212 46.76488042 51.00765886 49.15063897 48 52 C40.82874054 48.73168264 35.45823994 42.51238069 30.00390625 36.97265625 C27.49021939 34.49816919 24.84909354 32.20547268 22.15234375 29.93359375 C18.98095163 27.08452097 16.01454339 24.01454339 13 21 C12.67 46.08 12.34 71.16 12 97 C15.96 97 19.92 97 24 97 C24 80.83 24 64.66 24 48 C24.66 48 25.32 48 26 48 C26 48.66 26 49.32 26 50 C26.57105469 50.24234375 27.14210938 50.4846875 27.73046875 50.734375 C30.42354348 52.23619292 32.18139624 54.02426463 34.3125 56.25 C38.04647173 60.07670282 41.8869659 63.58705681 46 67 C48.8364094 65.70284982 50.95927116 64.31193002 53.21484375 62.1640625 C53.81159912 61.60082275 54.40835449 61.03758301 55.02319336 60.45727539 C55.97077515 59.55029907 55.97077515 59.55029907 56.9375 58.625 C58.29133 57.34469599 59.64550229 56.06475384 61 54.78515625 C61.67546875 54.14465332 62.3509375 53.50415039 63.046875 52.84423828 C65.82069559 50.22505819 68.62745365 47.64267759 71.4375 45.0625 C76.27427383 40.60905151 81.08080603 36.12423755 85.875 31.625 C86.88071045 30.68116455 86.88071045 30.68116455 87.90673828 29.71826172 C89.26351909 28.44483485 90.62028992 27.17139735 91.97705078 25.89794922 C93.97215063 24.02612853 95.96806549 22.15518637 97.96484375 20.28515625 C98.60486328 19.68574219 99.24488281 19.08632813 99.90429688 18.46875 C101.16442105 17.29246213 102.42739405 16.11921785 103.69335938 14.94921875 C106.54080472 12.31707545 109.34925631 9.6693007 112.06640625 6.90234375 C113.45666016 5.52755859 113.45666016 5.52755859 114.875 4.125 C115.65617187 3.32320312 116.43734375 2.52140625 117.2421875 1.6953125 C120 0 120 0 129 0 C129.33 14.19 129.66 28.38 130 43 C130.99 39.7 131.98 36.4 133 33 C138.34242078 19.63513217 148.72930368 10.5014454 161.28515625 4.109375 C164 3 164 3 167 3 C167.60365355 7.14508773 167.85795218 10.87971111 167 15 C164.74910489 17.14241824 162.52203999 18.23926017 159.734375 19.59765625 C150.3013143 24.43546881 145.53261735 33.89869458 141.625 43.3125 C139.44131161 56.19626153 141.00892011 68.43278165 148.3125 79.4375 C155.18024054 88.44867549 163.93524808 94.35152215 175 97 C189.25659114 98.19842524 200.63322489 95.8388609 212 87 C216.97541395 82.38458817 220.48840609 77.29061251 223 71 C223.2990625 70.25105469 223.598125 69.50210938 223.90625 68.73046875 C227.42076426 58.65878205 227.27019339 47.81033276 223 38 C219.18616057 30.7141779 215.07096464 23.97982821 208.0625 19.4375 C207.22847656 18.87933594 206.39445313 18.32117188 205.53515625 17.74609375 C200.24748041 15.13439088 194.65749228 13.62190196 189 12 C189.01047363 13.20124512 189.02094727 14.40249023 189.03173828 15.64013672 C189.06787287 20.08672112 189.09087657 24.53329248 189.10986328 28.97998047 C189.11993582 30.90643494 189.13359443 32.83287408 189.15087891 34.75927734 C189.17507241 37.52445252 189.18647036 40.289426 189.1953125 43.0546875 C189.20563507 43.9193161 189.21595764 44.7839447 189.22659302 45.67477417 C189.22699106 47.78453521 189.12265243 49.89380718 189 52 C187 54 187 54 183.5 54.3125 C182.345 54.209375 181.19 54.10625 180 54 C177.47224649 50.20836973 177.77556965 47.19125969 177.875 42.8125 C177.88402344 42.06291016 177.89304687 41.31332031 177.90234375 40.54101562 C177.92587422 38.69387346 177.96174439 36.84689588 178 35 C171.23652831 39.07542525 166.57209126 42.28372621 164 50 C163.60111216 55.88359568 163.96568566 60.82884457 167 66 C171.20770071 70.80272909 175.69548456 73.48602801 182.09375 74.25 C187.89236779 74.56773248 192.23110193 73.33065897 197 70 C201.47813257 65.40402183 203.28589001 60.88842136 203.25 54.5 C203.25515625 53.5821875 203.2603125 52.664375 203.265625 51.71875 C203.14006642 48.99748621 203.14006642 48.99748621 201.9921875 46.67578125 C200.63662521 43.02003255 200.78579515 39.52673942 200.875 35.6875 C200.88402344 34.94693359 200.89304687 34.20636719 200.90234375 33.44335938 C200.92575787 31.62876533 200.96162385 29.81433929 201 28 C208.1484866 32.28909196 212.35387576 38.06162729 215 46 C215.77053597 57.12856049 215.40160546 66.54754228 208.375 75.75 C203.21541589 81.318656 195.94335826 85.70540547 188.33984375 86.2734375 C179.39267023 86.56310887 172.60661087 86.26021679 165 81 C164.0925 80.443125 163.185 79.88625 162.25 79.3125 C155.60141065 72.47922761 151.76241928 63.88769904 151.5 54.375 C151.64560432 45.18251408 155.09692303 37.8886539 161.1875 31.0625 C165.40289696 27.20626242 172.14725771 23 178 23 C178 15.41 178 7.82 178 0 C194.64024957 -0.67233332 208.40552614 3.33847231 221.25 14.1875 C229.22780782 21.73475947 232.9270955 29.81773876 237 40 C237.33 26.8 237.66 13.6 238 0 C250.21 0 262.42 0 275 0 C275 20.13 275 40.26 275 61 C270.71 61 266.42 61 262 61 C262 44.83 262 28.66 262 12 C258.04 12 254.08 12 250 12 C250 32.13 250 52.26 250 73 C274.75 73 299.5 73 325 73 C325 84.88 325 96.76 325 109 C296.29 109 267.58 109 238 109 C238 105.04 238 101.08 238 97 C262.75 97 287.5 97 313 97 C313 93.04 313 89.08 313 85 C288.25 85 263.5 85 238 85 C237.67 79.39 237.34 73.78 237 68 C236.319375 69.93875 235.63875 71.8775 234.9375 73.875 C229.32187392 88.40306635 219.96507612 98.31014318 206 105 C205.32453125 105.33 204.6490625 105.66 203.953125 106 C192.95285991 111.06206889 176.14045912 111.0722353 164.875 106.9375 C147.9048794 99.13388237 138.77253813 88.69656339 131 72 C130.67 70.68 130.34 69.36 130 68 C129.67 81.53 129.34 95.06 129 109 C116.79 109 104.58 109 92 109 C91.67 98.44 91.34 87.88 91 77 C88.36 79.64 85.72 82.28 83 85 C79 88.5 79 88.5 77.015625 90.1953125 C74.13468006 92.7747632 71.49837732 95.57405072 68.859375 98.3984375 C66.80319947 100.16951306 65.72150843 100.92026831 63 101 C61.078125 99.56640625 61.078125 99.56640625 59.25 97.5625 C58.63640625 96.90378906 58.0228125 96.24507813 57.390625 95.56640625 C56.93171875 95.04949219 56.4728125 94.53257813 56 94 C57.10958403 90.6712479 57.92544504 89.98510301 60.5625 87.8125 C63.51012642 85.31673788 66.29574066 82.75780903 69 80 C72.2215855 76.72797872 75.58592145 73.70683945 79.06640625 70.71484375 C81.56431556 68.4995262 83.88024989 66.1310183 86.21875 63.75 C88.71065286 61.30181473 91.35751313 59.05123874 94.0078125 56.77734375 C96.66191631 54.40946682 99.11257203 51.86925518 101.5546875 49.28515625 C103 48 103 48 105 48 C105 64.17 105 80.34 105 97 C108.96 97 112.92 97 117 97 C116.67 71.92 116.34 46.84 116 21 C112.7 24.3 109.4 27.6 106 31 C101.8125 34.6875 101.8125 34.6875 99.86328125 36.35546875 C97.38369142 38.5439537 95.0937882 40.89544013 92.77734375 43.25390625 C90.93406426 45.06477643 89.02177201 46.75321354 87.0625 48.4375 C84.25423653 50.85617779 81.60029407 53.35899683 79 56 C75.7784145 59.27202128 72.41407855 62.29316055 68.93359375 65.28515625 C66.43981197 67.49681322 64.12745602 69.86105737 61.79296875 72.23828125 C59.2323631 74.75425761 56.51875975 77.0786081 53.80078125 79.421875 C51.7757781 81.19649815 49.86454143 83.05776935 48 85 C44 83 44 83 36 76 C36 86.89 36 97.78 36 109 C24.12 109 12.24 109 0 109 C0 73.03 0 37.06 0 0 Z " fill="#F9FAFA" transform="translate(366,30)"/>
<path d="M0 0 C43.23 0 86.46 0 131 0 C131 20.13 131 40.26 131 61 C126.71 61 122.42 61 118 61 C118 44.83 118 28.66 118 12 C114.04 12 110.08 12 106 12 C106 32.13 106 52.26 106 73 C130.75 73 155.5 73 181 73 C181.33 83.89 181.66 94.78 182 106 C189.53302127 91.50248738 197.03857803 77.00363164 204.3125 62.375 C208.46730962 54.01949027 212.6905517 45.71467476 217.08081055 37.48071289 C223.63507768 25.116584 229.77461957 12.53185299 236 0 C241.02899473 -0.86706806 241.02899473 -0.86706806 244 0 C245.55462646 1.88392639 245.55462646 1.88392639 246.94433594 4.39086914 C247.45492554 5.30264923 247.96551514 6.21442932 248.49157715 7.15383911 C250.81156247 11.531293 253.0767515 15.92650424 255.265625 20.37109375 C255.98307892 21.81380394 255.98307892 21.81380394 256.71502686 23.28565979 C258.23056733 26.33436438 259.74070525 29.38569923 261.25 32.4375 C267.63848271 45.3341584 274.08711094 58.18278055 280.83007812 70.89819336 C283.49337442 75.92048522 286.0810554 80.97878119 288.625 86.0625 C289.05683594 86.91392578 289.48867188 87.76535156 289.93359375 88.64257812 C290.54267578 89.8578418 290.54267578 89.8578418 291.1640625 91.09765625 C291.69700928 92.15738647 291.69700928 92.15738647 292.24072266 93.23852539 C293 95 293 95 293 97 C297.29 97 301.58 97 306 97 C299.67629505 84.26338423 293.34814213 71.54070522 286.67041016 58.98510742 C283.03229786 52.1208693 279.57056221 45.17368273 276.11816406 38.21459961 C273.04182873 32.03190793 269.86817188 25.90915086 266.625 19.8125 C263.16074819 13.29833222 259.94330101 6.76959233 257 0 C261.62 0 266.24 0 271 0 C271.60585938 1.22332031 272.21171875 2.44664063 272.8359375 3.70703125 C277.11135905 12.3130522 281.43017944 20.88781128 285.9375 29.375 C289.56123224 36.20071856 293.06325008 43.07829889 296.5 50 C299.89545226 56.83839337 303.35442336 63.63300707 306.9375 70.375 C310.89251596 77.82510907 314.72239379 85.33339445 318.5 92.875 C319.27525024 94.41873291 319.27525024 94.41873291 320.06616211 95.99365234 C320.54964111 96.96254395 321.03312012 97.93143555 321.53125 98.9296875 C321.95986328 99.78804199 322.38847656 100.64639648 322.83007812 101.53076172 C323.9881457 103.97498031 324.99550493 106.48876232 326 109 C312.8 109 299.6 109 286 109 C279.09713322 95.9485742 272.3025189 82.84784504 265.59594727 69.69458008 C264.06880805 66.69987005 262.53942253 63.70631529 261.00976562 60.71289062 C254.26896701 47.51042137 247.60694399 34.26994063 241 21 C238.17726844 24.63481368 236.14134066 28.47845685 234.12109375 32.59765625 C233.75269882 33.34001022 233.38430389 34.0823642 233.00474548 34.84721375 C232.21877156 36.43154197 231.43450213 38.01671675 230.65179443 39.60266113 C228.62184231 43.71480643 226.57882458 47.82043938 224.53515625 51.92578125 C223.93767578 53.12664871 223.93767578 53.12664871 223.328125 54.35177612 C220.05418451 60.9195307 216.6790207 67.4280628 213.22680664 73.90380859 C209.34198729 81.19828215 205.65892407 88.59016773 202 96 C205.96 96.33 209.92 96.66 214 97 C214.25434814 96.16154541 214.50869629 95.32309082 214.77075195 94.45922852 C216.11277341 90.68264421 217.8170864 87.19571704 219.66796875 83.65234375 C220.0258699 82.95919571 220.38377106 82.26604767 220.7525177 81.55189514 C221.89348158 79.34498292 223.04050716 77.14128362 224.1875 74.9375 C224.93852352 73.4852186 225.68917764 72.03274612 226.43945312 70.58007812 C230.87509718 62.00701816 235.39209475 53.48175084 240 45 C242.8725344 48.79488069 245.47169371 52.45062313 247 57 C246.5625 59.875 246.5625 59.875 245 63 C244.58363281 63.8559375 244.16726563 64.711875 243.73828125 65.59375 C242.52112251 68.07689333 241.2632509 70.53998509 240 73 C244.95 73 249.9 73 255 73 C256.98 76.96 258.96 80.92 261 85 C251.76 85 242.52 85 233 85 C232.34 86.98 231.68 88.96 231 91 C227.7 96.94 224.4 102.88 221 109 C179.09 109 137.18 109 94 109 C94 105.04 94 101.08 94 97 C118.75 97 143.5 97 169 97 C169 93.04 169 89.08 169 85 C144.25 85 119.5 85 94 85 C94 68.83 94 52.66 94 36 C66.94 36 39.88 36 12 36 C12 56.13 12 76.26 12 97 C15.96 97 19.92 97 24 97 C24 81.16 24 65.32 24 49 C39.18 49 54.36 49 70 49 C70 52.96 70 56.92 70 61 C59.11 61 48.22 61 37 61 C37 76.84 37 92.68 37 109 C24.79 109 12.58 109 0 109 C0 80.95 0 52.9 0 24 C27.06 24 54.12 24 82 24 C82 20.04 82 16.08 82 12 C54.94 12 27.88 12 0 12 C0 8.04 0 4.08 0 0 Z " fill="#F9FAFA" transform="translate(39,30)"/>
<path d="M0 0 C36.3 0 72.6 0 110 0 C110 12.21 110 24.42 110 37 C106.54402344 37.02578125 103.08804688 37.0515625 99.52734375 37.078125 C96.16796844 37.11657379 92.80874515 37.16172509 89.44946289 37.20751953 C87.12076108 37.23568735 84.7919644 37.25692264 82.46313477 37.27099609 C79.10904521 37.29248289 75.75609123 37.33916509 72.40234375 37.390625 C71.36665756 37.39185364 70.33097137 37.39308228 69.26390076 37.39434814 C62.99599329 37.52040223 58.98327727 38.06336717 54 42 C49.45108367 47.78427019 49.39933142 52.99947628 49.390625 60.18359375 C49.37408875 61.23909927 49.35755249 62.2946048 49.34051514 63.38209534 C49.29215763 66.73395682 49.27069071 70.08536496 49.25 73.4375 C49.22183019 75.71812161 49.19190135 77.99872222 49.16015625 80.27929688 C49.08640145 85.85282726 49.03675163 91.42610777 49 97 C52.96 97 56.92 97 61 97 C61 81.16 61 65.32 61 49 C64.96 49 68.92 49 73 49 C73 68.8 73 88.6 73 109 C61.12 109 49.24 109 37 109 C36.91585397 101.22584193 36.8357491 93.45335645 36.79299927 85.67913818 C36.77197502 82.05802703 36.74393426 78.4372973 36.69824219 74.81640625 C36.65442186 71.32152463 36.63078782 67.82701024 36.62049103 64.33187485 C36.60962519 62.36558659 36.57845819 60.39944377 36.54681396 58.43338013 C36.54424458 48.05366884 38.48874948 39.45510639 45.87402344 31.81005859 C56.25264881 22.97368647 66.89137672 23.24241746 79.75 23.625 C81.52599604 23.65516209 83.30204189 23.68252679 85.078125 23.70703125 C89.38666883 23.7724771 93.69277053 23.87564262 98 24 C98 20.04 98 16.08 98 12 C69.62 12 41.24 12 12 12 C12 15.96 12 19.92 12 24 C20.58 24 29.16 24 38 24 C36.02 26.31 34.04 28.62 32 31 C31.51813232 31.9593042 31.03626465 32.9186084 30.53979492 33.90698242 C29 36 29 36 25.99731445 36.56762695 C24.7980835 36.54144287 23.59885254 36.51525879 22.36328125 36.48828125 C21.19321533 36.47579346 20.02314941 36.46330566 18.81762695 36.45043945 C17.33093506 36.40491943 15.84424316 36.35939941 14.3125 36.3125 C9.589375 36.209375 4.86625 36.10625 0 36 C0 24.12 0 12.24 0 0 Z " fill="#FAFBFB" transform="translate(691,30)"/>
</svg>
